<svg width="143" height="143" viewBox="0 0 143 143" fill="none" xmlns="http://www.w3.org/2000/svg">
<g clip-path="url(#clip0_3_541)">
<path fill-rule="evenodd" clip-rule="evenodd" d="M62.4849 118.366C64.6542 115.431 68.0281 113.823 72.0768 113.823H72.0818C79.8843 113.823 85.3326 119.657 85.3326 127.768C85.3326 135.878 79.7194 141.762 71.9768 141.762C67.8382 141.762 64.5442 140.233 62.4049 137.328L62.265 141.114H56.3519V103.674H62.4849V118.366ZM71.6469 136.635C76.3954 136.635 79.7094 133.063 79.7094 127.951C79.7094 122.72 76.7603 119.212 71.9519 119.212C67.1434 119.212 63.7845 122.676 63.7845 127.951C63.7845 133.226 66.8985 136.635 71.6469 136.635ZM19.8086 135.769C18.2891 136.917 17.0795 137.363 15.485 137.363C13.1358 137.363 11.7862 135.948 11.7862 133.473V119.509H21.643V114.135H11.7862V107.158H5.65318V114.13H1.38955L0 119.504H5.65318V133.523C5.65318 139.634 8.93713 142.999 14.9052 142.999C17.6293 142.999 20.0585 142.168 22.3228 140.456L22.4878 140.332L20.0486 135.586L19.8086 135.764V135.769ZM37.7179 113.61C29.8754 113.61 24.1872 119.499 24.1872 127.61C24.1872 136.146 29.6005 141.658 37.9728 141.658C42.7562 141.658 46.3301 140.213 49.2092 137.11L49.3591 136.952L46.1052 133.068L45.9102 133.256C43.666 135.428 41.3467 136.398 38.3777 136.398C33.7192 136.398 30.8551 133.869 30.2903 129.262H50.4388V129.015C50.4388 128.767 50.4488 128.535 50.4638 128.302C50.4788 128.06 50.4888 127.817 50.4888 127.56C50.4888 119.088 45.4754 113.61 37.7179 113.61ZM30.4152 125.284C31.195 121.429 34.0141 118.955 37.6679 118.955C41.3217 118.955 43.7909 121.256 44.3307 125.284H30.4152ZM101.977 113.61C94.1347 113.61 88.4466 119.499 88.4466 127.61C88.4466 136.146 93.8598 141.658 102.232 141.658C107.016 141.658 110.589 140.213 113.469 137.11L113.618 136.952L110.365 133.068L110.17 133.256C107.925 135.428 105.606 136.398 102.637 136.398C97.9785 136.398 95.1144 133.869 94.5496 129.262H114.698V129.015C114.698 128.767 114.708 128.535 114.723 128.302C114.738 128.06 114.748 127.817 114.748 127.56C114.748 119.088 109.735 113.61 101.977 113.61ZM101.927 118.95C105.636 118.95 108.05 121.251 108.59 125.279H94.6746C95.4543 121.424 98.2734 118.95 101.927 118.95ZM141.455 114.13L131.943 126.961L142.529 141.114H135.242L128.404 131.455L121.716 141.114H114.788L125.015 127.318L115.248 114.13H122.536L128.554 122.919L134.522 114.13H141.455Z" fill="white"/>
</g>
<path d="M73.9325 24.8898C77.6982 18.7549 84.5178 16.9775 84.5178 16.9775C84.5178 16.9775 71.5025 13.5793 71.5025 -0.000976562C71.5025 13.5793 58.4797 16.9775 58.4797 16.9775C58.4797 16.9775 65.3018 18.7549 69.07 24.8898H51.2778V48.4097L55.3227 41.126H63.4101V81.7178L79.5874 97.954V48.2532C75.4619 46.3446 69.5354 41.4921 67.4123 37.7909C71.0371 38.8892 75.8996 40.3333 79.6855 41.1286H91.7222V24.8898H73.9325Z" fill="white"/>
<defs>
<clipPath id="clip0_3_541">
<rect width="142.529" height="39.325" fill="white" transform="translate(0 103.674)"/>
</clipPath>
</defs>
</svg>
